# xmcd
#
# Track frame offsets: 
#        150
#        17736
#        33970
#        50313
#        66423
#        85002
#        102261
#        115643
#        134644
#        153878
#
# Disc length: 2288 seconds
#
# Revision: 0
# Processed by: cddbd v1.5.2PL0 Copyright (c) Steve Scherf et al.
# Submitted via: ExactAudioCopy v0.99pb4
#
DISCID=7808ee0a
DTITLE=Людмила Вознярская - Встреча (2007)
DYEAR=2007
DGENRE=Pop
TTITLE0=Встреча
TTITLE1=Господь нам подарил любовь
TTITLE2=Песня о счастье
TTITLE3=Девятый вал
TTITLE4=Дорога в небо
TTITLE5=Разменяли мы жизнь
TTITLE6=Ранняя осень
TTITLE7=Зеркальце
TTITLE8=Рождество
TTITLE9=Скорый поезд
EXTD=
EXTT0=
EXTT1=
EXTT2=
EXTT3=
EXTT4=
EXTT5=
EXTT6=
EXTT7=
EXTT8=
EXTT9=
PLAYORDER=
